<?xml version="1.0" standalone="no"?>
<!DOCTYPE svg PUBLIC "-//W3C//DTD SVG 20010904//EN"
 "http://www.w3.org/TR/2001/REC-SVG-20010904/DTD/svg10.dtd">
<svg version="1.0" xmlns="http://www.w3.org/2000/svg"
 width="141.000000pt" height="141.000000pt" viewBox="0 0 141.000000 141.000000"
 preserveAspectRatio="xMidYMid meet">
<metadata>
Created by potrace 1.14, written by Peter Selinger 2001-2017
</metadata>
<g transform="translate(0.000000,141.000000) scale(0.100000,-0.100000)"
fill="#000000" stroke="none">
<path d="M130 1408 c0 -2 53 -160 118 -353 l117 -350 84 2 c46 1 87 5 91 10 4
4 40 108 81 230 40 122 76 220 80 217 4 -2 40 -104 79 -227 40 -122 74 -224
76 -226 4 -5 174 -5 178 0 1 2 49 146 105 319 56 173 106 323 111 332 24 43
14 49 -67 46 l-76 -3 -83 -245 c-45 -135 -83 -243 -83 -240 -1 3 -37 113 -81
245 l-79 240 -77 0 -76 0 -83 -240 c-79 -228 -84 -239 -95 -210 -10 26 -116
349 -139 425 -7 24 -12 25 -94 28 -48 1 -87 1 -87 0z"/>
<path d="M141 700 c-4 -3 44 -161 108 -352 l115 -347 88 1 c48 1 88 2 88 3 0
5 153 452 157 458 3 5 35 -83 72 -195 37 -111 72 -217 78 -235 l11 -32 88 2
87 2 114 340 c62 187 113 345 113 351 0 10 -145 13 -154 3 -2 -2 -39 -114 -83
-248 l-81 -244 -81 250 -81 249 -75 -1 c-41 -1 -77 -4 -79 -6 -2 -2 -39 -111
-82 -241 -43 -131 -82 -234 -85 -230 -4 4 -39 108 -79 232 -40 124 -76 230
-82 235 -9 10 -143 15 -157 5z"/>
</g>
</svg>
