<svg xmlns="http://www.w3.org/2000/svg" width="713.365" height="45.443" viewBox="0 0 713.365 45.443">
  <g id="Group_3" data-name="Group 3" transform="translate(-364.86 -168.907)">
    <path id="Path_2" data-name="Path 2" d="M72.034,13.729,57.526,57.658H46.5L36.747,27.912,26.674,57.658H15.715L1.144,13.729H11.787L21.8,44.6,32.249,13.729h9.5L51.888,44.856,62.214,13.729Zm33.449,34.515H84.894l-3.928,9.413H70.45L90.215,13.729h10.136L120.18,57.658H109.41Zm-3.231-7.719L95.22,23.707,88.188,40.526Zm22.553-26.8h10.263V49.374H157.3v8.284H124.8ZM179.223,40.4l-5.955,6.15V57.658h-10.2V13.729h10.2V34.25l19.639-20.521h11.4l-18.372,19.58,19.449,24.349h-11.97Zm30.725-26.671h10.263V57.658H209.948Zm61.45,0V57.658h-8.426L240.863,30.987V57.658H230.727V13.729h8.489L261.262,40.4V13.729ZM311.88,35h9.376V52.826a26.887,26.887,0,0,1-8.362,4.142,32.75,32.75,0,0,1-9.566,1.443,26.123,26.123,0,0,1-12.417-2.918,21.844,21.844,0,0,1-8.647-8.1,22.143,22.143,0,0,1-3.136-11.7,22.143,22.143,0,0,1,3.136-11.7,21.74,21.74,0,0,1,8.711-8.1,26.635,26.635,0,0,1,12.543-2.918A27.679,27.679,0,0,1,314.1,14.92a20.959,20.959,0,0,1,7.982,5.648l-6.589,6.025a15.305,15.305,0,0,0-11.466-4.958,15.771,15.771,0,0,0-7.539,1.757,12.671,12.671,0,0,0-5.131,4.958,14.483,14.483,0,0,0-1.837,7.342,14.358,14.358,0,0,0,1.837,7.28,12.937,12.937,0,0,0,5.1,4.989A15.23,15.23,0,0,0,303.9,49.75a16.761,16.761,0,0,0,7.982-1.883Z" transform="translate(363.716 155.935)" fill="#fff"/>
    <path id="Path_1" data-name="Path 1" d="M86.375,13.723,71.944,57.312H60.979L51.275,27.8,41.255,57.312h-10.9L15.86,13.723H26.447L36.4,44.36,46.8,13.723h9.452L66.336,44.609,76.607,13.723Zm5.671,0h10.209V57.312H92.046ZM146.87,49.217v8.1H112.715V13.723H146.05v8.1H122.86v9.465h20.48V39.13H122.86V49.217Zm36.234,8.1L174.6,45.17h-9.389V57.312H155V13.723h19.094a24.76,24.76,0,0,1,10.177,1.93,15.077,15.077,0,0,1,6.648,5.48,14.963,14.963,0,0,1,2.332,8.406,14.665,14.665,0,0,1-2.363,8.375,14.942,14.942,0,0,1-6.711,5.386l9.893,14.011Zm-.189-27.773a6.867,6.867,0,0,0-2.4-5.644q-2.395-1.962-6.995-1.962h-8.318v15.2h8.318q4.6,0,6.995-1.993a6.886,6.886,0,0,0,2.395-5.6Zm18.4-15.817h10.209V57.312H201.315Zm61.125,0V57.312h-8.381L232.067,30.848V57.312H221.984V13.723h8.444l21.929,26.465V13.723Zm40.267,21.11h9.326V52.518a26.769,26.769,0,0,1-8.318,4.11A32.651,32.651,0,0,1,294.2,58.06a26.036,26.036,0,0,1-12.351-2.9,21.707,21.707,0,0,1-8.6-8.033,21.931,21.931,0,0,1-3.119-11.613A21.931,21.931,0,0,1,273.248,23.9a21.6,21.6,0,0,1,8.665-8.033,26.548,26.548,0,0,1,12.477-2.9,27.593,27.593,0,0,1,10.524,1.93,20.848,20.848,0,0,1,7.94,5.6L306.3,26.489a15.242,15.242,0,0,0-11.406-4.919,15.719,15.719,0,0,0-7.5,1.744,12.59,12.59,0,0,0-5.1,4.919,14.343,14.343,0,0,0-1.827,7.286,14.219,14.219,0,0,0,1.827,7.223,12.854,12.854,0,0,0,5.073,4.95,15.179,15.179,0,0,0,7.4,1.775,16.706,16.706,0,0,0,7.94-1.868ZM355.64,49.221v8.1H321.486v-43.6h33.335v8.1h-23.19v9.465h20.48V39.13h-20.48V49.217Zm48.585-35.494V57.312h-8.381L373.852,30.848V57.312H363.77V13.723h8.444l21.929,26.465V13.723Z" transform="translate(674 156.286)" fill="#fff"/>
  </g>
</svg>
