<svg xmlns="http://www.w3.org/2000/svg" width="713.366" height="107.485" viewBox="0 0 713.366 107.485">
  <g id="Group_3" data-name="Group 3" transform="translate(-364.86 -168.911)">
    <path id="Path_2" data-name="Path 2" d="M72.034,13.729,57.526,57.658H46.5L36.747,27.912,26.674,57.658H15.715L1.144,13.729H11.787L21.8,44.6,32.249,13.729h9.5L51.888,44.856,62.214,13.729Zm33.449,34.515H84.894l-3.928,9.413H70.45L90.215,13.729h10.136L120.18,57.658H109.41Zm-3.231-7.719L95.22,23.707,88.188,40.526Zm22.553-26.8h10.263V49.374H157.3v8.284H124.8ZM179.223,40.4l-5.955,6.15V57.658h-10.2V13.729h10.2V34.25l19.639-20.521h11.4l-18.372,19.58,19.449,24.349H193.414Zm30.725-26.671h10.263V57.658H209.948Zm61.45,0V57.658h-8.426L240.863,30.987V57.658H230.727V13.729h8.489L261.262,40.4V13.729ZM311.88,35h9.376V52.826a26.887,26.887,0,0,1-8.362,4.142,32.75,32.75,0,0,1-9.566,1.443,26.123,26.123,0,0,1-12.417-2.918,21.844,21.844,0,0,1-8.647-8.1,22.143,22.143,0,0,1-3.136-11.7,22.143,22.143,0,0,1,3.136-11.7,21.74,21.74,0,0,1,8.711-8.1,26.635,26.635,0,0,1,12.543-2.918,27.679,27.679,0,0,1,10.58,1.945,20.959,20.959,0,0,1,7.982,5.648l-6.589,6.025a15.305,15.305,0,0,0-11.466-4.958,15.771,15.771,0,0,0-7.539,1.757,12.671,12.671,0,0,0-5.131,4.958,14.483,14.483,0,0,0-1.837,7.342,14.358,14.358,0,0,0,1.837,7.28,12.937,12.937,0,0,0,5.1,4.989,15.23,15.23,0,0,0,7.444,1.789,16.761,16.761,0,0,0,7.982-1.883Z" transform="translate(363.716 155.935)" fill="#fff"/>
    <path id="Path_1" data-name="Path 1" d="M86.375,13.723,71.944,57.312H60.979L51.275,27.8,41.255,57.312h-10.9L15.86,13.723H26.447L36.4,44.36,46.8,13.723h9.452L66.336,44.609,76.607,13.723Zm5.671,0h10.209V57.312H92.046ZM146.87,49.217v8.1H112.715V13.723h33.335v8.1h-23.19v9.465h20.48V39.13h-20.48V49.217Zm36.234,8.1L174.6,45.17h-9.389V57.312H155V13.723h19.094a24.76,24.76,0,0,1,10.177,1.93,15.077,15.077,0,0,1,6.648,5.48,14.963,14.963,0,0,1,2.332,8.406,14.665,14.665,0,0,1-2.363,8.375,14.942,14.942,0,0,1-6.711,5.386l9.893,14.011Zm-.189-27.773A6.867,6.867,0,0,0,180.52,23.9q-2.395-1.962-6.995-1.962h-8.318V37.137h8.318q4.6,0,6.995-1.993A6.886,6.886,0,0,0,182.915,29.54Zm18.4-15.817h10.209V57.312H201.315Zm61.125,0V57.312h-8.381L232.067,30.848V57.312H221.984V13.723h8.444l21.929,26.465V13.723Zm40.267,21.11h9.326V52.518a26.769,26.769,0,0,1-8.318,4.11A32.651,32.651,0,0,1,294.2,58.06a26.036,26.036,0,0,1-12.351-2.9,21.707,21.707,0,0,1-8.6-8.033,21.931,21.931,0,0,1-3.119-11.613A21.931,21.931,0,0,1,273.248,23.9a21.6,21.6,0,0,1,8.665-8.033,26.548,26.548,0,0,1,12.477-2.9,27.593,27.593,0,0,1,10.524,1.93,20.848,20.848,0,0,1,7.94,5.6L306.3,26.489a15.242,15.242,0,0,0-11.406-4.919,15.719,15.719,0,0,0-7.5,1.744,12.59,12.59,0,0,0-5.1,4.919,14.343,14.343,0,0,0-1.827,7.286,14.219,14.219,0,0,0,1.827,7.223,12.854,12.854,0,0,0,5.073,4.95,15.179,15.179,0,0,0,7.4,1.775,16.706,16.706,0,0,0,7.94-1.868Zm52.933,14.384v8.1H321.486V13.723h33.335v8.1h-23.19v9.465h20.48V39.13h-20.48V49.217Zm48.585-35.494V57.312h-8.381L373.852,30.848V57.312H363.77V13.723h8.444l21.929,26.465V13.723Z" transform="translate(674 156.286)" fill="#fff"/>
    <path id="Path_3" data-name="Path 3" d="M15.478,26.7l.834-.2q.173,0,.173.331T15.492,27.9a3.852,3.852,0,0,1-2.387.748,2.923,2.923,0,0,1-2.185-.805,2.868,2.868,0,0,1-.791-2.1q0-2.732,3.566-5.42a28.6,28.6,0,0,1,8.77-4.313,33.46,33.46,0,0,1,9.978-1.625q6.987,0,10.395,2.272a7,7,0,0,1,3.407,6.1q0,4.888-6.786,9.46a32.94,32.94,0,0,1-7.706,3.853A12.476,12.476,0,0,1,39,39a6.031,6.031,0,0,1,2.042,4.687q0,2.847-2.717,5.794a20.875,20.875,0,0,1-7.232,4.888,23.159,23.159,0,0,1-9.23,1.941q-5.435,0-7.994-2.387a2.966,2.966,0,0,1-1.15-1.941,4.351,4.351,0,0,1,.431-1.8q-2.1,3.8-3.077,5.722a1.753,1.753,0,0,1-1.74.863,2.809,2.809,0,0,1-2.027-.69,2.107,2.107,0,0,1-.719-1.553,4.162,4.162,0,0,1,.259-1.524q1.294-3.393,9.13-15.887t9.59-14.478q.92-1.121,4.169-1.121,1.294,0,1.294.575,0,.431-3.824,6.47t-4,6.326a53.079,53.079,0,0,0,8.181-3.149,36.54,36.54,0,0,0,7.3-4.529q3.12-2.53,3.12-4.572,0-3.364-7.3-3.364a29.206,29.206,0,0,0-14.722,4.054,15.747,15.747,0,0,0-2.674,1.84q-.92.834-.92,1.179T15.478,26.7ZM20.653,40.44q-.518,0-1.15-1.208-2.732,4.371-5.722,9.719a4.557,4.557,0,0,1,3.939-1.869q1.725,0,1.725.431,0,.173-.374.316-1.15.431-1.15,1.294,0,2.07,4.4,2.07A16.16,16.16,0,0,0,33.1,47.054q2.588-2.185,2.588-3.824,0-1.006-2.1-2.214-2.444-1.351-7.447-1.351a15.412,15.412,0,0,0-4.457.388Q20.711,40.44,20.653,40.44ZM50.012,65.687a12.606,12.606,0,0,0-.877,1.452q-.733,1.308-1.567,2.645a14,14,0,0,1-2.056,2.545,4.055,4.055,0,0,1-2.042,1.308q-.82.1-1.05.1a2.351,2.351,0,0,1-2.645-2.674q0-3.134,3.249-7.332a34.966,34.966,0,0,1,3.105-3.407Q48,58.5,48.171,58.254t4.313-8.066a46.162,46.162,0,0,1-5.118,4.9A8.918,8.918,0,0,1,42.823,57.2h-.2a3.939,3.939,0,0,1-2.214-.733A2.87,2.87,0,0,1,39.315,53.9a10.506,10.506,0,0,1,1.466-5.291q.518-.891,1.8-3.019t2.372-4.112q1.035-1.582,2.128-3.681t1.668-3q.575-.906,1.093-.906a2.422,2.422,0,0,1,1.337.647A1.913,1.913,0,0,1,52,36.069q0,.891-3.767,7.735T44.462,51.6a.2.2,0,0,0,.23.23q.776,0,3.436-2.2a64.434,64.434,0,0,0,5.88-5.65,50.536,50.536,0,0,0,5.636-6.987q.259-.4.417-.618t.4-.575q.244-.359.4-.561l.374-.474a2.839,2.839,0,0,1,.388-.417q.173-.144.374-.288a1.023,1.023,0,0,1,.7-.288,6.131,6.131,0,0,1,1.179.173,1.887,1.887,0,0,1,.949.374,4.179,4.179,0,0,0,.331.374.915.915,0,0,1,.288.589,1.691,1.691,0,0,1-.23.719q-.23.446-2.674,4.558Q55.36,52.69,52.657,58.268q4.371-3.681,12.307-10.9a1,1,0,0,1,.633-.259q.891,0,.891,2.732a1.442,1.442,0,0,1-.288,1.064A131.853,131.853,0,0,0,50.012,65.687ZM102.834,15.28l2.1-.46a2.2,2.2,0,0,1,1.294.345q.489.345.489.647a3.946,3.946,0,0,1-.144.877q-.144.575-2.329,11.214t-3.192,15.873q4.888-6.642,11.416-16.361t7.62-12.911a3.994,3.994,0,0,1,.891-1.553,2.223,2.223,0,0,1,.978-.647,6.335,6.335,0,0,1,1.323-.1,7.149,7.149,0,0,1,2.113.388q1.222.388,1.222,1.28,0,1.7-5.032,9.777T110.094,40.814Q103.639,49.9,99.3,55.191a2.355,2.355,0,0,1-1.883.949,7.694,7.694,0,0,1-2.329-.388q-1.222-.388-1.222-1.366,0-3.163,5.55-30.394Q94.668,30.146,87.881,41.13q-7.074,11.358-7.994,14.09-.518,1.639-1.179,1.9a2.413,2.413,0,0,1-.978.2l-2.272.259a2.159,2.159,0,0,1-1.222-.374q-.561-.374-.561-.776,0-1.15,3.177-6.872t7.419-12.436Q88.514,30.4,93.144,24.05a55.763,55.763,0,0,1,7.16-8.54,1.725,1.725,0,0,1,1.179-.46Zm30.48,9.288a4.916,4.916,0,0,1-1.524,3.292,4.362,4.362,0,0,1-3.177,1.653q-1.653,0-1.653-1.725a4.807,4.807,0,0,1,1.452-3.292,4.313,4.313,0,0,1,3.206-1.567,1.735,1.735,0,0,1,1.236.431A1.575,1.575,0,0,1,133.314,24.568Zm-4.658,25.1a3.189,3.189,0,0,1-.173,1.236A10.826,10.826,0,0,1,124,55.551a11.155,11.155,0,0,1-5.348,1.768,5.545,5.545,0,0,1-3.911-1.524A4.321,4.321,0,0,1,113.1,52.69a11.221,11.221,0,0,1,1.581-4.6q1.582-3.019,3.163-5.578a19.27,19.27,0,0,0,1.582-2.775q0-.216-.589-.848t-.589-.935q0-.3,1.193-1.582a20.507,20.507,0,0,1,2.9-2.53,5.234,5.234,0,0,1,2.617-1.251,2.139,2.139,0,0,1,1.625.805,2.324,2.324,0,0,1,.719,1.466q0,.661-6.844,12.451-.086.173-.474.762t-.6.978q-.216.388-.5.935a4.532,4.532,0,0,0-.575,1.927q0,.978,1.323.978a5.128,5.128,0,0,0,2.746-.906,12.911,12.911,0,0,0,2.459-2q2.7-2.9,3.077-2.9Q128.655,47.082,128.655,49.67Zm6.829-12.638a26.568,26.568,0,0,1,5.449-2.947,13.168,13.168,0,0,1,4.629-1.035q1.955,0,2.5,1.121a3.821,3.821,0,0,1,2.789-1.38q.489-.029,1.208-.029t.891.187a1.8,1.8,0,0,1,.316.7q.144.518.173.575a.446.446,0,0,1,.029.187.563.563,0,0,1-.144.316,2.88,2.88,0,0,1-.331.359q-.187.173-.216.2-6.355,9.115-13,20.79a57.4,57.4,0,0,1,12.249-8.713,1.479,1.479,0,0,1,.661-.173q.46,0,.6.589a7.523,7.523,0,0,1,.144,1.682,4.055,4.055,0,0,1-.129,1.351,5.058,5.058,0,0,1-1.337,1.035l-3.134,2.013q-1.927,1.236-4.083,2.732a43.242,43.242,0,0,0-8.511,7.562,68.74,68.74,0,0,0-6.182,8.4,2.45,2.45,0,0,1-2.329,1.236q-3.249,0-3.249-3.077,0-3.134,3.077-6.412a43.089,43.089,0,0,1,4.227-4q1.927-1.553,2.1-1.754,2.128-3.192,5.78-9.058a35.748,35.748,0,0,1-6.024,5.176q-2.919,1.927-4.356,1.927-4.4,0-4.4-3.767a13.418,13.418,0,0,1,1.524-6.038,21,21,0,0,1,3.911-5.449A36.328,36.328,0,0,1,135.485,37.033Zm10.941-.733a22.223,22.223,0,0,0-6.268,2.372,22.508,22.508,0,0,0-4.831,3.537,27.98,27.98,0,0,0-3.278,3.867q-2.588,3.709-2.588,5.751,0,.489.244.489A3.173,3.173,0,0,0,130.8,51.8a25.05,25.05,0,0,0,2.4-1.768q1.553-1.251,3.451-2.976A99.336,99.336,0,0,0,146.426,36.3Zm30.049,11.358a14.71,14.71,0,0,1,.2,2.085,2.989,2.989,0,0,1-.273,1.323,7.77,7.77,0,0,1-1.208,1.582,19.709,19.709,0,0,1-2.228,2.056,10.356,10.356,0,0,1-6.47,2.5q-4.744,0-4.744-4.2,0-3.652,6.355-14.55.23-.4.316-.575-2.214,1.553-8.468,8.468T151.63,56.14a2.168,2.168,0,0,1-.863.575,2.836,2.836,0,0,1-1.078.316,1.748,1.748,0,0,1-.834-.244,1.83,1.83,0,0,0-.561-.244q-.374,0-.374-.244a18.861,18.861,0,0,1,1.021-2.645q1.021-2.4,2.689-5.967,4.572-9.834,13.6-25.592a74.571,74.571,0,0,1,4.946-7.821q1.265-1.639,4.256-1.639.633,0,.719.374a3.576,3.576,0,0,1,.086.805,2.308,2.308,0,0,1-.173.863l-3.077,4.8a256.485,256.485,0,0,0-13.773,23.636,45.3,45.3,0,0,1,8.713-8.425q2.617-1.869,3.925-1.869a6.453,6.453,0,0,1,2.372.417q1.064.417,1.064,2a19.939,19.939,0,0,1-1.869,4.256q-5.607,11.042-5.607,12.264t1.006,1.222q1.466,0,4.514-2.847,2.3-2.157,2.9-2.76a1.087,1.087,0,0,1,.633-.259A.544.544,0,0,1,176.474,47.657ZM194.1,19.1l1.179.288a.578.578,0,0,1,.46.259.812.812,0,0,1,.2.489,4.148,4.148,0,0,1-.6,1.236q-.6,1.006-1.423,2.286t-.877,1.395q2.243-.173,3.177-.173a4.2,4.2,0,0,1,1.28.129,2.062,2.062,0,0,1,.791.719,5.132,5.132,0,0,0,.82.891,1.1,1.1,0,0,1,.374.906,1.2,1.2,0,0,1-.733,1.021,3.962,3.962,0,0,1-1.567.5q-6.671.661-7.361.69-2.329,3.566-6.513,11.114T178.861,50.3a11.107,11.107,0,0,0-.115,1.409q0,1.121,1.179,1.121a5.021,5.021,0,0,0,2.617-.906,20.615,20.615,0,0,0,2.645-1.97,27.036,27.036,0,0,1,3.451-2.875q.748,0,.748,2.588a3.3,3.3,0,0,1-1.294,2.53,44.979,44.979,0,0,1-4.888,3.767,7.332,7.332,0,0,1-3.968,1.265,3.576,3.576,0,0,1-.805-.086,5.683,5.683,0,0,1-3.379-1.682,4.945,4.945,0,0,1-1.064-3.379,14.284,14.284,0,0,1,1.265-5.161,62.642,62.642,0,0,1,3.149-6.455Q181.506,34.89,184.612,30l-1.093.144q-3.336.374-3.882.374h-.259a4.069,4.069,0,0,1-1.61-.331q-.776-.331-.776-.819a1.409,1.409,0,0,1,.417-.949,2.4,2.4,0,0,0,.5-.719q.2-.633,1.51-1.409a5.144,5.144,0,0,1,1.97-.82q.661-.043,1.28-.072t1.38-.058q.762-.029,1.165-.058l2.588-.115a55.878,55.878,0,0,1,3.321-4.658,13.612,13.612,0,0,1,1.05-1.136,1.107,1.107,0,0,1,.575-.1Z" transform="translate(878.457 202.601)" fill="#f7ff00"/>
  </g>
</svg>