<svg xmlns="http://www.w3.org/2000/svg" width="320.48" height="93.659" viewBox="0 0 320.48 93.659">
  <g id="Group_2" data-name="Group 2" transform="translate(-364.86 -168.976)">
    <path id="Path_2" data-name="Path 2" d="M71.932,13.728,57.446,57.594H46.438L36.7,27.89,26.642,57.59H15.694L1.144,13.728H11.772l10,30.831L32.2,13.728h9.489L51.815,44.81,62.127,13.728Zm33.4,34.466H84.774l-3.922,9.4h-10.5L90.088,13.728H100.21l19.8,43.866H109.256Zm-3.226-7.708L95.085,23.692,88.063,40.486Zm22.521-26.758h10.248V49.322h22.2v8.272H124.628Zm54.341,26.633L173.022,46.5V57.594H162.837V13.728h10.185V34.22l19.611-20.492H204.02L185.674,33.28,205.1,57.594H193.139ZM209.65,13.728H219.9V57.594H209.65Zm61.362,0V57.594H262.6L240.521,30.961V57.594H230.4V13.728h8.477L260.89,40.361V13.728Zm40.423,21.244H320.8v17.8a26.848,26.848,0,0,1-8.35,4.136,32.7,32.7,0,0,1-9.552,1.441,26.085,26.085,0,0,1-12.4-2.914,21.813,21.813,0,0,1-8.635-8.084,22.112,22.112,0,0,1-3.131-11.687,22.112,22.112,0,0,1,3.131-11.687,21.709,21.709,0,0,1,8.7-8.084,26.6,26.6,0,0,1,12.526-2.914,27.64,27.64,0,0,1,10.564,1.943,20.929,20.929,0,0,1,7.971,5.64l-6.579,6.016a15.284,15.284,0,0,0-11.45-4.951,15.748,15.748,0,0,0-7.528,1.755,12.653,12.653,0,0,0-5.124,4.951,14.463,14.463,0,0,0-1.835,7.332,14.337,14.337,0,0,0,1.835,7.269,12.918,12.918,0,0,0,5.092,4.982,15.208,15.208,0,0,0,7.433,1.786,16.737,16.737,0,0,0,7.971-1.88Z" transform="translate(363.716 156)" fill="#fff"/>
    <path id="Path_1" data-name="Path 1" d="M74.048,13.6,62.14,50H53.092L45.084,25.352,36.816,50h-9L15.86,13.6H24.6l8.216,25.584L41.392,13.6h7.8l8.32,25.792L65.988,13.6Zm4.68,0h8.424V50H78.728Zm45.24,29.64V50H95.784V13.6h27.508v6.76H104.156v7.9h16.9v6.552h-16.9V43.24Zm29.9,6.76-7.02-10.14H139.1V50h-8.424V13.6h15.756a20.221,20.221,0,0,1,8.4,1.612,12.477,12.477,0,0,1,5.486,4.576,12.606,12.606,0,0,1,1.924,7.02,11.857,11.857,0,0,1-7.49,11.492L162.916,50Zm-.156-23.192a5.766,5.766,0,0,0-1.976-4.706,8.847,8.847,0,0,0-5.772-1.638H139.1V33.152h6.864a8.749,8.749,0,0,0,5.772-1.664,5.782,5.782,0,0,0,1.976-4.68ZM168.9,13.6h8.424V50H168.9Zm50.44,0V50h-6.92L194.272,27.9V50h-8.32V13.6h6.968l18.1,22.1V13.6Zm33.228,17.628h7.7V46a21.988,21.988,0,0,1-6.864,3.432,26.649,26.649,0,0,1-7.852,1.2,21.278,21.278,0,0,1-10.192-2.418,18,18,0,0,1-7.1-6.708,18.481,18.481,0,0,1-2.574-9.7,18.481,18.481,0,0,1,2.574-9.7,17.913,17.913,0,0,1,7.15-6.708,21.7,21.7,0,0,1,10.3-2.418,22.531,22.531,0,0,1,8.684,1.612,17.207,17.207,0,0,1,6.552,4.68l-5.408,4.992a12.508,12.508,0,0,0-9.412-4.108,12.846,12.846,0,0,0-6.188,1.456,10.445,10.445,0,0,0-4.212,4.108,12.091,12.091,0,0,0-1.508,6.084,11.986,11.986,0,0,0,1.508,6.032,10.666,10.666,0,0,0,4.186,4.134,12.407,12.407,0,0,0,6.11,1.482,13.653,13.653,0,0,0,6.552-1.56Zm43.68,12.012V50H268.06V13.6h27.508v6.76H276.432v7.9h16.9v6.552h-16.9V43.24ZM336.336,13.6V50H329.42L311.272,27.9V50h-8.32V13.6h6.968l18.1,22.1V13.6Z" transform="translate(349 212)" fill="#fff"/>
  </g>
</svg>
