<svg xmlns="http://www.w3.org/2000/svg" width="320.935" height="143.153" viewBox="0 0 320.935 143.153">
  <g id="Group_2" data-name="Group 2" transform="translate(-364.86 -168.976)">
    <path id="Path_2" data-name="Path 2" d="M71.932,13.728,57.446,57.594H46.438L36.7,27.89l-10.058,29.7H15.694L1.144,13.728H11.772l10,30.831L32.2,13.728h9.489L51.815,44.81,62.127,13.728Zm33.4,34.466H84.774l-3.922,9.4h-10.5L90.088,13.728h10.122l19.8,43.866H109.256Zm-3.226-7.708L95.085,23.692,88.063,40.486Zm22.521-26.758h10.248V49.322h22.2v8.272H124.628Zm54.341,26.633L173.022,46.5V57.594H162.837V13.728h10.185V34.22l19.611-20.492h11.387L185.674,33.28l19.421,24.314H193.139ZM209.65,13.728H219.9V57.594H209.65Zm61.362,0V57.594H262.6L240.521,30.961V57.594H230.4V13.728h8.477L260.89,40.361V13.728Zm40.423,21.244H320.8v17.8a26.848,26.848,0,0,1-8.35,4.136,32.7,32.7,0,0,1-9.552,1.441,26.085,26.085,0,0,1-12.4-2.914,21.813,21.813,0,0,1-8.635-8.084,22.112,22.112,0,0,1-3.131-11.687,22.112,22.112,0,0,1,3.131-11.687,21.709,21.709,0,0,1,8.7-8.084,26.6,26.6,0,0,1,12.526-2.914,27.64,27.64,0,0,1,10.564,1.943,20.929,20.929,0,0,1,7.971,5.64l-6.579,6.016a15.284,15.284,0,0,0-11.45-4.951,15.748,15.748,0,0,0-7.528,1.755,12.653,12.653,0,0,0-5.124,4.951,14.463,14.463,0,0,0-1.835,7.332,14.337,14.337,0,0,0,1.835,7.269,12.918,12.918,0,0,0,5.092,4.982,15.208,15.208,0,0,0,7.433,1.786,16.737,16.737,0,0,0,7.971-1.88Z" transform="translate(363.716 156)" fill="#fff"/>
    <path id="Path_1" data-name="Path 1" d="M74.048,13.6,62.14,50H53.092L45.084,25.352,36.816,50h-9L15.86,13.6H24.6l8.216,25.584L41.392,13.6h7.8l8.32,25.792L65.988,13.6Zm4.68,0h8.424V50H78.728Zm45.24,29.64V50H95.784V13.6h27.508v6.76H104.156v7.9h16.9v6.552h-16.9V43.24Zm29.9,6.76-7.02-10.14H139.1V50h-8.424V13.6h15.756a20.221,20.221,0,0,1,8.4,1.612,12.477,12.477,0,0,1,5.486,4.576,12.606,12.606,0,0,1,1.924,7.02A11.857,11.857,0,0,1,154.752,38.3L162.916,50Zm-.156-23.192a5.766,5.766,0,0,0-1.976-4.706,8.847,8.847,0,0,0-5.772-1.638H139.1V33.152h6.864a8.749,8.749,0,0,0,5.772-1.664A5.782,5.782,0,0,0,153.712,26.808ZM168.9,13.6h8.424V50H168.9Zm50.44,0V50H212.42L194.272,27.9V50h-8.32V13.6h6.968l18.1,22.1V13.6Zm33.228,17.628h7.7V46a21.988,21.988,0,0,1-6.864,3.432,26.649,26.649,0,0,1-7.852,1.2,21.278,21.278,0,0,1-10.192-2.418,18,18,0,0,1-7.1-6.708,18.481,18.481,0,0,1-2.574-9.7,18.481,18.481,0,0,1,2.574-9.7,17.913,17.913,0,0,1,7.15-6.708,21.7,21.7,0,0,1,10.3-2.418,22.531,22.531,0,0,1,8.684,1.612,17.207,17.207,0,0,1,6.552,4.68l-5.408,4.992a12.508,12.508,0,0,0-9.412-4.108,12.846,12.846,0,0,0-6.188,1.456,10.445,10.445,0,0,0-4.212,4.108,12.091,12.091,0,0,0-1.508,6.084,11.986,11.986,0,0,0,1.508,6.032,10.666,10.666,0,0,0,4.186,4.134,12.407,12.407,0,0,0,6.11,1.482,13.653,13.653,0,0,0,6.552-1.56Zm43.68,12.012V50H268.06V13.6h27.508v6.76H276.432v7.9h16.9v6.552h-16.9V43.24ZM336.336,13.6V50H329.42L311.272,27.9V50h-8.32V13.6h6.968l18.1,22.1V13.6Z" transform="translate(349 212)" fill="#fff"/>
    <path id="Path_3" data-name="Path 3" d="M14.728,25.6l.771-.186q.159,0,.159.306t-.917,1a3.56,3.56,0,0,1-2.206.691,2.7,2.7,0,0,1-2.02-.744,2.65,2.65,0,0,1-.731-1.94q0-2.525,3.3-5.01a26.431,26.431,0,0,1,8.106-3.986,30.925,30.925,0,0,1,9.222-1.5q6.458,0,9.607,2.1a6.468,6.468,0,0,1,3.149,5.634q0,4.518-6.272,8.744a30.444,30.444,0,0,1-7.122,3.561,11.53,11.53,0,0,1,6.7,2.711A5.574,5.574,0,0,1,38.354,41.3a8.039,8.039,0,0,1-2.511,5.355,19.294,19.294,0,0,1-6.684,4.518,21.4,21.4,0,0,1-8.531,1.794q-5.023,0-7.388-2.206a2.741,2.741,0,0,1-1.063-1.794,4.021,4.021,0,0,1,.4-1.661q-1.94,3.508-2.844,5.289a1.62,1.62,0,0,1-1.608.8,2.6,2.6,0,0,1-1.874-.638,1.947,1.947,0,0,1-.664-1.435,3.847,3.847,0,0,1,.239-1.409q1.2-3.136,8.438-14.683T23.126,21.85q.85-1.036,3.854-1.036,1.2,0,1.2.532a47.466,47.466,0,0,1-3.535,5.98q-3.535,5.581-3.694,5.847a49.057,49.057,0,0,0,7.561-2.91,33.772,33.772,0,0,0,6.75-4.186q2.883-2.339,2.884-4.226,0-3.109-6.75-3.109a26.993,26.993,0,0,0-13.607,3.747,14.554,14.554,0,0,0-2.472,1.7q-.85.771-.85,1.09T14.728,25.6Zm4.784,12.7q-.478,0-1.063-1.116-2.525,4.04-5.289,8.983A4.212,4.212,0,0,1,16.8,44.44q1.595,0,1.595.4,0,.159-.345.292-1.063.4-1.063,1.2,0,1.913,4.066,1.913a14.936,14.936,0,0,0,9.966-3.827q2.392-2.02,2.392-3.535,0-.93-1.94-2.046-2.259-1.249-6.883-1.249a14.244,14.244,0,0,0-4.119.359Q19.565,38.3,19.512,38.3ZM46.646,61.635a11.65,11.65,0,0,0-.811,1.342q-.678,1.209-1.448,2.445a12.943,12.943,0,0,1-1.9,2.352A3.748,3.748,0,0,1,40.6,68.983q-.757.093-.97.093A2.173,2.173,0,0,1,37.185,66.6q0-2.9,3-6.777a32.321,32.321,0,0,1,2.87-3.149q1.727-1.688,1.887-1.913t3.986-7.455A42.664,42.664,0,0,1,44.2,51.841,8.243,8.243,0,0,1,40,53.795h-.186a3.64,3.64,0,0,1-2.046-.678,2.653,2.653,0,0,1-1.01-2.379,9.71,9.71,0,0,1,1.355-4.89q.478-.824,1.661-2.79t2.193-3.8q.957-1.462,1.967-3.4t1.541-2.777q.532-.837,1.01-.837a2.239,2.239,0,0,1,1.236.6,1.768,1.768,0,0,1,.757,1.422q0,.824-3.481,7.149t-3.481,7.2a.188.188,0,0,0,.213.213q.718,0,3.176-2.033A59.554,59.554,0,0,0,50.34,41.57a46.709,46.709,0,0,0,5.209-6.458q.239-.372.385-.571t.372-.532q.226-.332.372-.518l.345-.438a2.624,2.624,0,0,1,.359-.385q.159-.133.345-.266a.945.945,0,0,1,.651-.266,5.666,5.666,0,0,1,1.09.159,1.744,1.744,0,0,1,.877.345,3.862,3.862,0,0,0,.306.345.845.845,0,0,1,.266.545,1.563,1.563,0,0,1-.213.664q-.213.412-2.472,4.212-6.644,11.215-9.142,16.371,4.04-3.4,11.375-10.072a.925.925,0,0,1,.585-.239q.824,0,.824,2.525a1.332,1.332,0,0,1-.266.983A121.862,121.862,0,0,0,46.646,61.635Zm48.82-46.588,1.94-.425a2.033,2.033,0,0,1,1.2.319q.452.319.452.6a3.647,3.647,0,0,1-.133.811q-.133.532-2.153,10.365t-2.95,14.67q4.518-6.139,10.551-15.122t7.043-11.933a3.692,3.692,0,0,1,.824-1.435,2.054,2.054,0,0,1,.9-.6,5.855,5.855,0,0,1,1.223-.093,6.607,6.607,0,0,1,1.953.359q1.129.359,1.129,1.183,0,1.568-4.651,9.036T102.177,38.646q-5.966,8.4-9.979,13.288a2.176,2.176,0,0,1-1.741.877,7.111,7.111,0,0,1-2.153-.359q-1.129-.359-1.129-1.262,0-2.923,5.129-28.091-4.385,5.687-10.657,15.839-6.538,10.5-7.388,13.022-.478,1.515-1.09,1.754a2.23,2.23,0,0,1-.9.186l-2.1.239a2,2,0,0,1-1.129-.345q-.518-.345-.518-.718,0-1.063,2.937-6.352t6.857-11.494q3.92-6.206,8.2-12.079a51.538,51.538,0,0,1,6.617-7.893,1.594,1.594,0,0,1,1.09-.425Zm28.171,8.584a4.543,4.543,0,0,1-1.409,3.043,4.031,4.031,0,0,1-2.937,1.528q-1.528,0-1.528-1.595a4.443,4.443,0,0,1,1.342-3.043,3.986,3.986,0,0,1,2.963-1.448,1.6,1.6,0,0,1,1.143.4A1.455,1.455,0,0,1,123.637,23.631Zm-4.305,23.2a2.948,2.948,0,0,1-.159,1.143,10.006,10.006,0,0,1-4.146,4.292,10.31,10.31,0,0,1-4.943,1.634,5.125,5.125,0,0,1-3.614-1.409,3.994,3.994,0,0,1-1.515-2.87,10.37,10.37,0,0,1,1.462-4.252q1.462-2.79,2.923-5.156A17.809,17.809,0,0,0,110.8,37.65q0-.2-.545-.784T109.711,36q0-.279,1.1-1.462A18.954,18.954,0,0,1,113.5,32.2a4.837,4.837,0,0,1,2.418-1.156,1.977,1.977,0,0,1,1.5.744,2.148,2.148,0,0,1,.664,1.355q0,.611-6.325,11.507-.08.159-.439.7t-.558.9q-.2.359-.465.864a4.188,4.188,0,0,0-.532,1.781q0,.9,1.223.9a4.739,4.739,0,0,0,2.538-.837,11.933,11.933,0,0,0,2.272-1.847q2.5-2.684,2.844-2.684Q119.332,44.44,119.332,46.832Zm6.312-11.68a24.556,24.556,0,0,1,5.036-2.724,12.171,12.171,0,0,1,4.279-.957q1.807,0,2.312,1.036a3.531,3.531,0,0,1,2.578-1.276q.452-.027,1.116-.027t.824.173a1.665,1.665,0,0,1,.292.651q.133.478.159.532a.412.412,0,0,1,.027.173.52.52,0,0,1-.133.292,2.661,2.661,0,0,1-.306.332q-.173.159-.2.186-5.873,8.425-12.012,19.215a53.052,53.052,0,0,1,11.321-8.053,1.367,1.367,0,0,1,.611-.159q.425,0,.558.545a6.951,6.951,0,0,1,.133,1.555,3.747,3.747,0,0,1-.12,1.249,4.674,4.674,0,0,1-1.236.957l-2.9,1.86q-1.781,1.143-3.774,2.525a39.967,39.967,0,0,0-7.867,6.99,63.534,63.534,0,0,0-5.714,7.76,2.264,2.264,0,0,1-2.153,1.143q-3,0-3-2.844,0-2.9,2.844-5.926a39.827,39.827,0,0,1,3.907-3.694q1.781-1.435,1.94-1.621,1.967-2.95,5.342-8.371a33.04,33.04,0,0,1-5.568,4.784q-2.7,1.781-4.026,1.781-4.066,0-4.066-3.481a12.4,12.4,0,0,1,1.409-5.581,19.407,19.407,0,0,1,3.614-5.036A33.577,33.577,0,0,1,125.643,35.152Zm10.112-.678a20.539,20.539,0,0,0-5.794,2.193,20.8,20.8,0,0,0-4.465,3.269,25.862,25.862,0,0,0-3.03,3.574q-2.392,3.428-2.392,5.315,0,.452.226.452a2.933,2.933,0,0,0,1.01-.478,23.154,23.154,0,0,0,2.219-1.634q1.435-1.156,3.189-2.751A91.807,91.807,0,0,0,135.756,34.474Zm27.772,10.5a13.6,13.6,0,0,1,.186,1.927,2.763,2.763,0,0,1-.252,1.223,7.182,7.182,0,0,1-1.116,1.462,18.211,18.211,0,0,1-2.06,1.9,9.571,9.571,0,0,1-5.98,2.312q-4.385,0-4.385-3.88,0-3.375,5.873-13.447.213-.372.292-.532-2.046,1.435-7.827,7.827t-7.694,9.049a2,2,0,0,1-.8.532,2.621,2.621,0,0,1-1,.292,1.615,1.615,0,0,1-.771-.226,1.692,1.692,0,0,0-.518-.226q-.345,0-.345-.226a17.428,17.428,0,0,1,.943-2.445q.943-2.219,2.485-5.515,4.226-9.089,12.57-23.653a68.92,68.92,0,0,1,4.571-7.229,4.669,4.669,0,0,1,3.933-1.515q.585,0,.664.345a3.305,3.305,0,0,1,.08.744,2.133,2.133,0,0,1-.159.8l-2.844,4.438a237.053,237.053,0,0,0-12.73,21.846,41.867,41.867,0,0,1,8.053-7.787q2.418-1.727,3.628-1.727a5.964,5.964,0,0,1,2.193.385q.983.385.983,1.847a18.429,18.429,0,0,1-1.727,3.933Q154.6,47.629,154.6,48.759t.93,1.129q1.355,0,4.172-2.631,2.126-1.993,2.684-2.551a1,1,0,0,1,.585-.239A.5.5,0,0,1,163.528,44.971Zm16.291-26.39,1.09.266a.534.534,0,0,1,.425.239.751.751,0,0,1,.186.452,3.833,3.833,0,0,1-.558,1.143q-.558.93-1.316,2.113t-.811,1.289q2.073-.159,2.937-.159a3.887,3.887,0,0,1,1.183.12,1.906,1.906,0,0,1,.731.664,4.743,4.743,0,0,0,.757.824,1.012,1.012,0,0,1,.345.837,1.107,1.107,0,0,1-.678.943,3.662,3.662,0,0,1-1.448.465q-6.166.611-6.8.638-2.153,3.3-6.019,10.272t-4.106,8.73a10.266,10.266,0,0,0-.106,1.3q0,1.036,1.09,1.036a4.641,4.641,0,0,0,2.418-.837,19.052,19.052,0,0,0,2.445-1.82,24.99,24.99,0,0,1,3.189-2.658q.691,0,.691,2.392a3.049,3.049,0,0,1-1.2,2.339,41.573,41.573,0,0,1-4.518,3.481,6.776,6.776,0,0,1-3.668,1.169,3.3,3.3,0,0,1-.744-.08,5.252,5.252,0,0,1-3.123-1.555,4.57,4.57,0,0,1-.983-3.123,13.2,13.2,0,0,1,1.169-4.77,57.894,57.894,0,0,1,2.91-5.966q2.87-5.156,5.74-9.674l-1.01.133q-3.083.345-3.588.345h-.239a3.761,3.761,0,0,1-1.488-.306q-.718-.306-.718-.757a1.3,1.3,0,0,1,.385-.877,2.215,2.215,0,0,0,.465-.664q.186-.585,1.4-1.3a4.754,4.754,0,0,1,1.82-.757q.611-.04,1.183-.066t1.276-.053q.7-.027,1.076-.053L174,24.189a51.641,51.641,0,0,1,3.07-4.305,12.581,12.581,0,0,1,.97-1.05,1.023,1.023,0,0,1,.532-.093Z" transform="translate(501.006 243)" fill="#f7ff00"/>
  </g>
</svg>
