<svg xmlns="http://www.w3.org/2000/svg" width="695.844" height="548.568" viewBox="0 0 695.844 548.568">
  <g id="ticket" transform="translate(-1158.318 -413.262)">
    <g id="theater-ticket-svgrepo-com" transform="translate(1278.702 403.296) rotate(18)">
      <path id="Path_5" data-name="Path 5" d="M118.213,213.072a2.035,2.035,0,0,1,2.058,0L136,221.6a2.3,2.3,0,0,0,1.346.493,1.381,1.381,0,0,0,1.149-.569,2.131,2.131,0,0,0,.153-1.883l-3.809-17.633-.011-.1a1.925,1.925,0,0,1,.635-1.959l13.529-12.139c1.106-.821,1.051-1.62.919-2.025s-.58-1.095-1.97-1.095l-17.863-1.467h-.088a1.946,1.946,0,0,1-1.664-1.2L120.873,165c-.438-1.313-1.215-1.5-1.642-1.5s-1.193.186-1.642,1.5l-7.4,16.922-.044.1a1.956,1.956,0,0,1-1.675,1.2L90.52,184.69c-1.39,0-1.806.679-1.959,1.095-.131.4-.2,1.2.93,2.025l13.441,12.062.088.088a1.969,1.969,0,0,1,.635,1.959L99.824,219.65a2.03,2.03,0,0,0,.153,1.883c.493.69,1.489.788,2.517.077l15.576-8.45Zm-5.976-65.805.055.055a1.15,1.15,0,0,1,.372,1.149l-2.266,10.5a1.153,1.153,0,0,0,.088,1.106c.285.427.876.482,1.489.055l9.227-5,.077-.055a1.185,1.185,0,0,1,1.2,0l9.315,5.057a1.342,1.342,0,0,0,.8.3.812.812,0,0,0,.679-.35,1.246,1.246,0,0,0,.088-1.106l-2.255-10.431-.011-.066a1.107,1.107,0,0,1,.383-1.149l7.99-7.18c.668-.482.613-.963.547-1.182-.077-.241-.339-.668-1.16-.668l-10.563-.854h-.044a1.16,1.16,0,0,1-1-.722l-4.4-10.07c-.263-.777-.722-.887-.974-.887s-.711.109-.985.887l-4.367,10-.022.066a1.181,1.181,0,0,1-1.007.722l-10.606.854c-.81,0-1.084.416-1.149.668-.088.23-.12.7.547,1.182C104.29,140.152,112.237,147.267,112.237,147.267Zm13.332-34.1.044.044a.835.835,0,0,1,.274.843l-1.675,7.782a.881.881,0,0,0,.055.81c.23.306.668.35,1.116.033l6.819-3.7.066-.033a.879.879,0,0,1,.9,0l6.9,3.732a.971.971,0,0,0,.6.23.617.617,0,0,0,.5-.252.883.883,0,0,0,.066-.81l-1.664-7.739-.022-.044a.841.841,0,0,1,.285-.843l5.922-5.32c.493-.361.46-.711.4-.887s-.241-.482-.854-.482l-7.837-.646h-.022a.823.823,0,0,1-.733-.525l-3.262-7.454c-.208-.58-.547-.679-.733-.679s-.536.1-.722.679l-3.24,7.4-.011.055a.856.856,0,0,1-.744.525l-7.848.646c-.624,0-.788.306-.865.482-.055.175-.077.525.394.887ZM121.88,265.666c.252,0,.711-.12.974-.9l4.4-10.07a1.179,1.179,0,0,1,1-.722h.044l10.563-.854c.821,0,1.095-.394,1.16-.646.066-.23.12-.711-.547-1.193l-7.99-7.18a1.114,1.114,0,0,1-.383-1.149l.011-.066,2.255-10.431a1.239,1.239,0,0,0-.088-1.116A.815.815,0,0,0,132.6,231a1.418,1.418,0,0,0-.8.3l-9.315,5.046a1.137,1.137,0,0,1-1.2,0l-.077-.044-9.227-5c-.613-.416-1.193-.361-1.489.044a1.2,1.2,0,0,0-.088,1.116l2.266,10.5a1.15,1.15,0,0,1-.372,1.149l-.055.055-7.957,7.137c-.668.482-.635.963-.547,1.193s.339.646,1.149.646l10.606.854a1.181,1.181,0,0,1,1.007.722l.022.055,4.367,10.015C121.157,265.556,121.617,265.666,121.88,265.666Zm24.266,18.75c.055-.175.088-.514-.4-.887l-5.922-5.309a.852.852,0,0,1-.285-.854l.022-.055,1.664-7.739a.868.868,0,0,0-.066-.8.589.589,0,0,0-.5-.252,1.046,1.046,0,0,0-.6.219l-6.9,3.732a.879.879,0,0,1-.9,0l-.066-.022-6.819-3.711a.771.771,0,0,0-1.116.033.873.873,0,0,0-.055.8l1.675,7.793a.868.868,0,0,1-.274.854l-.044.033-5.9,5.276c-.471.372-.449.722-.394.887.077.186.252.482.865.482l7.848.646a.826.826,0,0,1,.744.525l.011.055,3.24,7.4c.2.58.536.679.722.679s.525-.1.733-.679l3.262-7.454a.854.854,0,0,1,.733-.525h.022l7.837-.646C145.894,284.9,146.091,284.6,146.146,284.416ZM500.883,182.008l-.044-.1-7.4-16.922c-.449-1.313-1.226-1.5-1.653-1.5s-1.193.186-1.631,1.5l-7.454,17.02a1.941,1.941,0,0,1-1.664,1.2h-.1l-17.852,1.467c-1.39,0-1.828.679-1.97,1.095s-.186,1.2.919,2.025l13.529,12.139a1.925,1.925,0,0,1,.635,1.959l-.011.1-3.809,17.633a2.1,2.1,0,0,0,.153,1.883,1.381,1.381,0,0,0,1.149.569,2.3,2.3,0,0,0,1.346-.493l15.729-8.527a2.036,2.036,0,0,1,2.058,0l.131.077,15.576,8.45c1.04.711,2.036.624,2.518-.077a2.062,2.062,0,0,0,.153-1.883L507.363,201.9a1.963,1.963,0,0,1,.624-1.959l.1-.088,13.452-12.062c1.127-.821,1.062-1.62.93-2.025-.153-.4-.569-1.095-1.959-1.095L502.558,183.2A1.932,1.932,0,0,1,500.883,182.008Zm-11.723-56.25c-.252,0-.722.109-.974.887l-4.411,10.07a1.163,1.163,0,0,1-.985.722h-.044l-10.573.854c-.81,0-1.084.416-1.149.668-.066.23-.12.7.547,1.182l7.99,7.18a1.088,1.088,0,0,1,.372,1.149v.066l-2.255,10.431a1.216,1.216,0,0,0,.088,1.106.826.826,0,0,0,.679.35,1.4,1.4,0,0,0,.81-.3l9.315-5.057a1.186,1.186,0,0,1,1.2,0l.077.055,9.227,5c.613.427,1.193.372,1.489-.055a1.211,1.211,0,0,0,.088-1.106l-2.266-10.5a1.143,1.143,0,0,1,.372-1.149l.055-.055,7.957-7.126c.657-.482.635-.963.547-1.182a1.072,1.072,0,0,0-1.149-.668l-10.606-.854a1.162,1.162,0,0,1-1.007-.722l-.022-.066-4.367-10C489.872,125.868,489.412,125.758,489.161,125.758ZM464.894,107c-.055.175-.088.525.394.887l5.933,5.32a.808.808,0,0,1,.263.843v.044l-1.664,7.739a.879.879,0,0,0,.066.81.589.589,0,0,0,.5.252.971.971,0,0,0,.6-.23l6.9-3.732a.879.879,0,0,1,.9,0l.066.033,6.819,3.7a.771.771,0,0,0,1.116-.033.885.885,0,0,0,.055-.81l-1.675-7.782a.857.857,0,0,1,.274-.843l.044-.044,5.9-5.276c.471-.361.449-.711.394-.887-.077-.175-.241-.482-.865-.482l-7.848-.646a.826.826,0,0,1-.744-.525l-.011-.055-3.24-7.4c-.2-.58-.536-.679-.722-.679s-.536.1-.722.679l-3.262,7.454a.854.854,0,0,1-.733.525h-.022l-7.848.646C465.135,106.516,464.938,106.833,464.894,107Zm33.9,137.171-.055-.055a1.15,1.15,0,0,1-.372-1.149l2.266-10.5a1.206,1.206,0,0,0-.088-1.116c-.285-.4-.876-.46-1.489-.044l-9.227,5-.077.044a1.137,1.137,0,0,1-1.2,0l-9.315-5.046a1.346,1.346,0,0,0-.81-.3.86.86,0,0,0-.679.339,1.235,1.235,0,0,0-.088,1.116l2.255,10.431v.066a1.088,1.088,0,0,1-.372,1.149l-7.99,7.18c-.668.482-.613.963-.547,1.193s.339.646,1.149.646l10.573.854h.044a1.164,1.164,0,0,1,.985.722l4.411,10.07c.252.777.711.9.974.9s.711-.12.985-.9l4.367-10.015.022-.055a1.181,1.181,0,0,1,1.007-.722l10.606-.854c.81,0,1.073-.394,1.149-.646.088-.23.12-.711-.547-1.193C506.728,251.283,498.793,244.168,498.793,244.168Zm-13.321,34.085-.044-.033a.869.869,0,0,1-.274-.854l1.675-7.793a.87.87,0,0,0-.055-.8c-.23-.306-.668-.35-1.116-.033l-6.819,3.711-.066.022a.879.879,0,0,1-.9,0l-6.9-3.732a.932.932,0,0,0-.6-.219.632.632,0,0,0-.5.252.872.872,0,0,0-.066.8l1.664,7.739v.055a.819.819,0,0,1-.263.854l-5.933,5.309c-.482.372-.449.722-.394.887.044.186.241.482.843.482l7.848.646h.022a.823.823,0,0,1,.733.525l3.262,7.454c.2.58.547.679.722.679.2,0,.536-.1.722-.679l3.24-7.4.011-.055a.856.856,0,0,1,.744-.525l7.848-.646c.624,0,.788-.3.865-.482.055-.175.077-.514-.394-.887ZM603.915,93.031A11.957,11.957,0,0,0,593.7,90.787a40.2,40.2,0,0,1-9.337,1.16,39.725,39.725,0,0,1-32.487-62.6,11.959,11.959,0,0,0-9.774-18.87H80.221a11.969,11.969,0,0,0-11.154,16.3A39.744,39.744,0,0,1,16.626,77.729,11.968,11.968,0,0,0,0,88.751v229.18a11.963,11.963,0,0,0,16.615,11.033A39.78,39.78,0,0,1,71.76,365.621a39.079,39.079,0,0,1-1.116,9.205A11.967,11.967,0,0,0,82.278,389.57H534.114a11.967,11.967,0,0,0,11.646-14.744,39.563,39.563,0,0,1,47.92-47.789,11.978,11.978,0,0,0,14.8-11.635v-213A11.894,11.894,0,0,0,603.915,93.031ZM584.53,301.9h-.164A63.745,63.745,0,0,0,520.7,365.577H95.7a63.682,63.682,0,0,0-71.76-63.167V104.217a63.651,63.651,0,0,0,71.409-69.8H523.224a63.681,63.681,0,0,0,61.142,81.447h.164C584.53,115.875,584.53,301.9,584.53,301.9ZM533.118,106.823A41.023,41.023,0,0,1,506.3,68.48a3.985,3.985,0,0,0-3.984-3.984H109.708a4,4,0,0,0-3.951,3.448,40.917,40.917,0,0,1-31.808,34.326,4.209,4.209,0,0,0-3.12,3.492,6.974,6.974,0,0,0-.077.81v192.72a3.982,3.982,0,0,0,3.47,3.951A40.624,40.624,0,0,1,108.23,333.2a4,4,0,0,0,3.864,2.966h388.45a3.992,3.992,0,0,0,3.864-2.966,40.921,40.921,0,0,1,28.415-28.8,4,4,0,0,0,2.922-3.853V110.566A4.017,4.017,0,0,0,533.118,106.823Zm-5.374,190.8a49.016,49.016,0,0,0-30.177,30.56H115.061a48.6,48.6,0,0,0-36.318-32.268l.033-186.656a48.985,48.985,0,0,0,34.293-36.8H498.5a49.067,49.067,0,0,0,29.258,40.794V297.627h-.011Z" transform="translate(0 0)" fill="#fff"/>
    </g>
    <g id="Group_6" data-name="Group 6" transform="translate(1106.196 319.359) rotate(18)">
      <path id="Path_2" data-name="Path 2" d="M58.182,13.582,46.51,48.927H37.64l-7.85-23.934-8.1,23.934H12.868L1.144,13.582H9.707l8.054,24.843,8.41-24.843h7.646l8.156,25.045,8.309-25.045ZM85.1,41.353H68.53l-3.16,7.574H56.908l15.9-35.345h8.156L96.921,48.927H88.256Zm-2.6-6.211L76.838,21.61,71.18,35.143Zm18.146-21.561H108.9v28.68h17.891v6.665H100.642Zm43.785,21.46-4.791,4.948v8.937H131.43V13.582h8.207V30.093l15.8-16.511h9.175L149.831,29.336l15.649,19.591h-9.634Zm24.722-21.46h8.258V48.927h-8.258Zm49.443,0V48.927h-6.779l-17.789-21.46v21.46h-8.156V13.582h6.83l17.738,21.46V13.582ZM251.164,30.7h7.544v14.34a21.633,21.633,0,0,1-6.728,3.333,26.351,26.351,0,0,1-7.7,1.161,21.018,21.018,0,0,1-9.991-2.348,17.576,17.576,0,0,1-6.958-6.514,17.817,17.817,0,0,1-2.523-9.417,17.817,17.817,0,0,1,2.523-9.417,17.492,17.492,0,0,1,7.009-6.514,21.431,21.431,0,0,1,10.093-2.348,22.271,22.271,0,0,1,8.512,1.565,16.863,16.863,0,0,1,6.423,4.544l-5.3,4.847a12.315,12.315,0,0,0-9.226-3.989,12.689,12.689,0,0,0-6.066,1.414,10.2,10.2,0,0,0-4.129,3.989,11.653,11.653,0,0,0-1.478,5.908,11.553,11.553,0,0,0,1.478,5.857,10.409,10.409,0,0,0,4.1,4.014,12.254,12.254,0,0,0,5.989,1.439,13.486,13.486,0,0,0,6.423-1.515Z" transform="translate(363.716 156)" fill="#fff"/>
      <path id="Path_1" data-name="Path 1" d="M62.746,13.479l-9.595,29.33H45.86l-6.453-19.86-6.662,19.86H25.5L15.86,13.479H22.9l6.62,20.615,6.913-20.615h6.285l6.7,20.782,6.83-20.782Zm3.771,0H73.3v29.33H66.516Zm36.453,23.883v5.447H80.26V13.479h22.165v5.447H87.005v6.369h13.617v5.279H87.005v6.788Zm24.092,5.447-5.656-8.17h-6.243v8.17h-6.788V13.479h12.7a16.293,16.293,0,0,1,6.767,1.3,10.053,10.053,0,0,1,4.42,3.687,10.158,10.158,0,0,1,1.55,5.656,9.554,9.554,0,0,1-6.034,9.26l6.578,9.427Zm-.126-18.687a4.646,4.646,0,0,0-1.592-3.792,7.129,7.129,0,0,0-4.651-1.32h-5.531V29.233h5.531a7.05,7.05,0,0,0,4.651-1.341A4.659,4.659,0,0,0,126.936,24.121ZM139.17,13.479h6.788v29.33H139.17Zm40.643,0v29.33H174.24L159.617,25V42.808h-6.7V13.479h5.615l14.581,17.807V13.479Zm26.774,14.2h6.2v11.9a17.717,17.717,0,0,1-5.531,2.765,21.472,21.472,0,0,1-6.327.964,17.145,17.145,0,0,1-8.212-1.948A14.5,14.5,0,0,1,187,35.958a14.891,14.891,0,0,1-2.074-7.814A14.891,14.891,0,0,1,187,20.329a14.433,14.433,0,0,1,5.761-5.405,17.481,17.481,0,0,1,8.3-1.948,18.155,18.155,0,0,1,7,1.3,13.865,13.865,0,0,1,5.279,3.771l-4.358,4.022a10.078,10.078,0,0,0-7.584-3.31,10.351,10.351,0,0,0-4.986,1.173,8.416,8.416,0,0,0-3.394,3.31,9.743,9.743,0,0,0-1.215,4.9A9.658,9.658,0,0,0,193.011,33a8.594,8.594,0,0,0,3.373,3.331,10,10,0,0,0,4.923,1.194,11,11,0,0,0,5.279-1.257Zm35.2,9.679v5.447h-22.71V13.479h22.165v5.447H225.818v6.369h13.617v5.279H225.818v6.788Zm32.3-23.883v29.33h-5.573L253.891,25V42.808h-6.7V13.479H252.8l14.581,17.807V13.479Z" transform="translate(349 201.123)" fill="#fff"/>
      <path id="Path_3" data-name="Path 3" d="M12.952,23l.621-.15q.128,0,.128.246t-.739.8a2.868,2.868,0,0,1-1.777.557,2.177,2.177,0,0,1-1.627-.6,2.135,2.135,0,0,1-.589-1.563q0-2.034,2.655-4.037a21.3,21.3,0,0,1,6.531-3.212,24.918,24.918,0,0,1,7.431-1.21q5.2,0,7.741,1.692a5.212,5.212,0,0,1,2.538,4.54q0,3.64-5.054,7.045a24.531,24.531,0,0,1-5.739,2.869,9.291,9.291,0,0,1,5.4,2.184,4.492,4.492,0,0,1,1.52,3.49,6.478,6.478,0,0,1-2.024,4.315,15.546,15.546,0,0,1-5.386,3.64,17.247,17.247,0,0,1-6.874,1.445q-4.047,0-5.953-1.777a2.209,2.209,0,0,1-.857-1.445,3.24,3.24,0,0,1,.321-1.338q-1.563,2.827-2.291,4.261a1.305,1.305,0,0,1-1.3.642,2.092,2.092,0,0,1-1.51-.514,1.569,1.569,0,0,1-.535-1.156,3.1,3.1,0,0,1,.193-1.135q.964-2.527,6.8-11.831t7.142-10.782q.685-.835,3.105-.835.964,0,.964.428a38.247,38.247,0,0,1-2.848,4.818q-2.848,4.5-2.977,4.711a39.528,39.528,0,0,0,6.092-2.345,27.212,27.212,0,0,0,5.439-3.373q2.323-1.884,2.323-3.4,0-2.505-5.439-2.505A21.75,21.75,0,0,0,15.415,20.49a11.727,11.727,0,0,0-1.991,1.37q-.685.621-.685.878T12.952,23Zm3.855,10.236q-.385,0-.857-.9-2.034,3.255-4.261,7.238a3.394,3.394,0,0,1,2.934-1.392q1.285,0,1.285.321,0,.128-.278.236-.857.321-.857.964,0,1.542,3.276,1.542a12.035,12.035,0,0,0,8.03-3.084q1.927-1.627,1.927-2.848,0-.749-1.563-1.649A11.844,11.844,0,0,0,20.9,32.653a11.477,11.477,0,0,0-3.319.289Q16.85,33.232,16.807,33.232Zm21.864,18.8a9.388,9.388,0,0,0-.653,1.081q-.546.974-1.167,1.97a10.429,10.429,0,0,1-1.531,1.9,3.02,3.02,0,0,1-1.52.974q-.61.075-.782.075a1.751,1.751,0,0,1-1.97-1.991q0-2.334,2.42-5.461a26.043,26.043,0,0,1,2.313-2.538q1.392-1.36,1.52-1.542t3.212-6.007A34.377,34.377,0,0,1,36.7,44.142a6.642,6.642,0,0,1-3.383,1.574h-.15a2.933,2.933,0,0,1-1.649-.546,2.138,2.138,0,0,1-.814-1.917,7.824,7.824,0,0,1,1.092-3.94q.385-.664,1.338-2.248T34.9,34q.771-1.178,1.585-2.741t1.242-2.238q.428-.675.814-.675a1.8,1.8,0,0,1,1,.482,1.425,1.425,0,0,1,.61,1.146q0,.664-2.805,5.76t-2.805,5.8a.151.151,0,0,0,.171.171q.578,0,2.559-1.638a47.986,47.986,0,0,0,4.379-4.208,37.636,37.636,0,0,0,4.2-5.2q.193-.3.311-.46t.3-.428q.182-.268.3-.418L47.033,29a2.114,2.114,0,0,1,.289-.311q.128-.107.278-.214a.762.762,0,0,1,.525-.214,4.565,4.565,0,0,1,.878.128,1.406,1.406,0,0,1,.707.278,3.113,3.113,0,0,0,.246.278.681.681,0,0,1,.214.439,1.26,1.26,0,0,1-.171.535q-.171.332-1.992,3.394-5.353,9.037-7.366,13.191,3.255-2.741,9.165-8.116a.745.745,0,0,1,.471-.193q.664,0,.664,2.034a1.074,1.074,0,0,1-.214.792A98.192,98.192,0,0,0,38.67,52.033ZM78.008,14.494l1.563-.343a1.638,1.638,0,0,1,.964.257q.364.257.364.482a2.939,2.939,0,0,1-.107.653q-.107.428-1.735,8.351T76.68,35.716q3.64-4.947,8.5-12.185t5.675-9.615a2.975,2.975,0,0,1,.664-1.156,1.655,1.655,0,0,1,.728-.482,4.718,4.718,0,0,1,.985-.075,5.324,5.324,0,0,1,1.574.289q.91.289.91.953,0,1.263-3.747,7.281T83.415,33.51q-4.807,6.767-8.041,10.707a1.754,1.754,0,0,1-1.4.707,5.729,5.729,0,0,1-1.735-.289q-.91-.289-.91-1.017,0-2.356,4.133-22.635-3.533,4.583-8.587,12.763Q61.6,42.2,60.92,44.238q-.385,1.221-.878,1.413a1.8,1.8,0,0,1-.728.15l-1.692.193a1.608,1.608,0,0,1-.91-.278q-.418-.278-.418-.578,0-.857,2.366-5.118t5.525-9.262q3.159-5,6.606-9.733a41.527,41.527,0,0,1,5.332-6.36A1.285,1.285,0,0,1,77,14.323Zm22.7,6.917a3.661,3.661,0,0,1-1.135,2.452,3.248,3.248,0,0,1-2.366,1.231q-1.231,0-1.231-1.285a3.58,3.58,0,0,1,1.081-2.452,3.212,3.212,0,0,1,2.388-1.167,1.292,1.292,0,0,1,.921.321A1.173,1.173,0,0,1,100.707,21.411ZM97.238,40.105a2.375,2.375,0,0,1-.128.921,8.062,8.062,0,0,1-3.341,3.458A8.307,8.307,0,0,1,89.785,45.8a4.13,4.13,0,0,1-2.912-1.135,3.218,3.218,0,0,1-1.221-2.313,8.356,8.356,0,0,1,1.178-3.426q1.178-2.248,2.356-4.154a14.349,14.349,0,0,0,1.178-2.066q0-.161-.439-.632t-.439-.7q0-.225.889-1.178a15.272,15.272,0,0,1,2.163-1.884,3.9,3.9,0,0,1,1.949-.932,1.593,1.593,0,0,1,1.21.6,1.73,1.73,0,0,1,.535,1.092q0,.493-5.1,9.272-.064.128-.353.567t-.45.728q-.161.289-.375.7a3.375,3.375,0,0,0-.428,1.435q0,.728.985.728a3.819,3.819,0,0,0,2.045-.675,9.615,9.615,0,0,0,1.831-1.488,10.592,10.592,0,0,1,2.291-2.163Q97.238,38.178,97.238,40.105Zm5.086-9.411a19.786,19.786,0,0,1,4.058-2.195,9.806,9.806,0,0,1,3.448-.771q1.456,0,1.863.835a2.845,2.845,0,0,1,2.077-1.028q.364-.021.9-.021t.664.139a1.341,1.341,0,0,1,.236.525q.107.385.128.428a.332.332,0,0,1,.021.139.419.419,0,0,1-.107.236,2.144,2.144,0,0,1-.246.268l-.161.15q-4.732,6.788-9.679,15.482a42.747,42.747,0,0,1,9.122-6.488,1.1,1.1,0,0,1,.493-.128q.343,0,.45.439a5.6,5.6,0,0,1,.107,1.253,3.019,3.019,0,0,1-.1,1.006,3.766,3.766,0,0,1-1,.771l-2.334,1.5q-1.435.921-3.041,2.034a32.2,32.2,0,0,0-6.339,5.632,51.192,51.192,0,0,0-4.6,6.253,1.824,1.824,0,0,1-1.735.921q-2.42,0-2.42-2.291a7.13,7.13,0,0,1,2.291-4.775,32.091,32.091,0,0,1,3.148-2.977q1.435-1.156,1.563-1.306,1.585-2.377,4.3-6.745a26.622,26.622,0,0,1-4.486,3.855,7.02,7.02,0,0,1-3.244,1.435q-3.276,0-3.276-2.805a9.992,9.992,0,0,1,1.135-4.5,15.638,15.638,0,0,1,2.912-4.058A27.055,27.055,0,0,1,102.323,30.694Zm8.148-.546a16.55,16.55,0,0,0-4.668,1.767,16.762,16.762,0,0,0-3.6,2.634,20.838,20.838,0,0,0-2.441,2.88q-1.927,2.762-1.927,4.283,0,.364.182.364a2.363,2.363,0,0,0,.814-.385,18.658,18.658,0,0,0,1.788-1.317q1.156-.932,2.57-2.216A73.974,73.974,0,0,0,110.471,30.148Zm22.378,8.459a10.952,10.952,0,0,1,.15,1.553,2.226,2.226,0,0,1-.2.985,5.786,5.786,0,0,1-.9,1.178,14.673,14.673,0,0,1-1.66,1.531,7.712,7.712,0,0,1-4.818,1.863q-3.533,0-3.533-3.126,0-2.72,4.732-10.835.171-.3.236-.428a52.8,52.8,0,0,0-6.306,6.306q-4.658,5.15-6.2,7.291a1.614,1.614,0,0,1-.642.428,2.112,2.112,0,0,1-.8.236,1.3,1.3,0,0,1-.621-.182,1.364,1.364,0,0,0-.418-.182q-.278,0-.278-.182a14.043,14.043,0,0,1,.76-1.97q.76-1.788,2-4.443,3.4-7.324,10.129-19.058a55.533,55.533,0,0,1,3.683-5.825,3.762,3.762,0,0,1,3.169-1.221q.471,0,.535.278a2.663,2.663,0,0,1,.064.6,1.719,1.719,0,0,1-.128.642l-2.291,3.576a191.006,191.006,0,0,0-10.257,17.6,33.735,33.735,0,0,1,6.488-6.274,6.045,6.045,0,0,1,2.923-1.392,4.805,4.805,0,0,1,1.767.311q.792.311.792,1.488a14.849,14.849,0,0,1-1.392,3.169q-4.176,8.223-4.176,9.133t.749.91q1.092,0,3.362-2.12,1.713-1.606,2.163-2.056a.81.81,0,0,1,.471-.193A.405.405,0,0,1,132.849,38.606Zm13.127-21.264.878.214a.431.431,0,0,1,.343.193.605.605,0,0,1,.15.364,3.089,3.089,0,0,1-.45.921q-.45.749-1.06,1.7t-.653,1.039q1.67-.128,2.366-.128a3.132,3.132,0,0,1,.953.1,1.536,1.536,0,0,1,.589.535,3.822,3.822,0,0,0,.61.664.816.816,0,0,1,.278.675.892.892,0,0,1-.546.76,2.951,2.951,0,0,1-1.167.375q-4.968.493-5.482.514-1.735,2.655-4.85,8.276t-3.308,7.034a8.272,8.272,0,0,0-.086,1.049q0,.835.878.835a3.74,3.74,0,0,0,1.949-.675,15.351,15.351,0,0,0,1.97-1.467,20.138,20.138,0,0,1,2.57-2.141q.557,0,.557,1.927a2.456,2.456,0,0,1-.964,1.884,33.5,33.5,0,0,1-3.64,2.805,5.46,5.46,0,0,1-2.955.942,2.663,2.663,0,0,1-.6-.064,4.232,4.232,0,0,1-2.516-1.253A3.683,3.683,0,0,1,131,41.9a10.637,10.637,0,0,1,.942-3.844,46.647,46.647,0,0,1,2.345-4.807q2.313-4.154,4.625-7.795l-.814.107q-2.484.278-2.891.278h-.193a3.03,3.03,0,0,1-1.2-.246q-.578-.246-.578-.61a1.049,1.049,0,0,1,.311-.707,1.785,1.785,0,0,0,.375-.535q.15-.471,1.124-1.049a3.831,3.831,0,0,1,1.467-.61q.493-.032.953-.054t1.028-.043q.567-.021.867-.043l1.927-.086a41.607,41.607,0,0,1,2.473-3.469,10.131,10.131,0,0,1,.782-.846.825.825,0,0,1,.428-.075Z" transform="translate(473.476 226.251)" fill="#f7ff00"/>
    </g>
  </g>
</svg>
